<?xml version="1.0" encoding="UTF-8"?>
<svg id="Layer_2" data-name="Layer 2" xmlns="http://www.w3.org/2000/svg" viewBox="0 0 265.84 111.76">
  <defs>
    <style>
      .cls-1 {
        fill: #aa894b;
      }

      .cls-2 {
        fill: #414042;
        stroke: #414042;
        stroke-miterlimit: 10;
        stroke-width: 1.09px;
      }
    </style>
  </defs>
  <g id="Layer_1-2" data-name="Layer 1">
    <g>
      <g>
        <path class="cls-2" d="M49.39,51.57c.1,1.6-.07,4.19-.53,7.77-.46,3.57-.93,6.79-1.42,9.66-.49,2.86-1.23,6.99-2.23,12.38-2.23,12.33-3.31,19.5-3.23,21.52.1-.18.22-.38.35-.59.1-.18.26-.3.45-.35.2-.05.39-.03.57.08.18.1.3.26.35.45.05.2.03.39-.08.57-.39.68-.77,1.2-1.12,1.56s-.76.45-1.2.3c-.26-.11-.46-.3-.59-.57-.13-.28-.21-.78-.24-1.5-.03-.72.01-1.6.12-2.64.1-1.04.3-2.48.59-4.34.29-1.85.63-3.91,1.03-6.17.39-2.26.91-5.11,1.54-8.55.95-5.23,1.66-9.26,2.15-12.08.49-2.82.96-6.04,1.42-9.66.46-3.61.65-6.18.57-7.71-.11-1.45-.37-2.19-.79-2.25h-.04c-.18,0-.41.09-.69.28-.28.18-.64.51-1.1.99-.46.47-.95,1.07-1.48,1.79-.53.72-1.14,1.68-1.85,2.88-.71,1.2-1.45,2.56-2.21,4.08-4,7.99-7.84,18.38-11.55,31.18-.05.21-.17.36-.34.45s-.35.12-.55.08c-.2-.04-.36-.14-.47-.32-.12-.17-.17-.35-.14-.53,1.84-10.83,2.82-18.96,2.96-24.4.03-1.26,0-2.37-.06-3.31-.07-.95-.14-1.64-.24-2.09-.09-.45-.21-.81-.35-1.1-.14-.29-.24-.45-.3-.49-.05-.04-.11-.07-.16-.1-.5-.08-1.3.62-2.41,2.09-1.97,2.6-4.39,7.17-7.25,13.72-2.18,4.99-4.35,10.56-6.5,16.69-2.15,6.14-4.06,12.15-5.71,18.04v.04c-.13.32-.23.55-.3.71-.07.16-.15.34-.26.55-.11.21-.22.35-.35.43-.13.08-.28.12-.43.12-.08,0-.17-.01-.28-.04-.34-.11-.53-.39-.57-.85-.04-.46.02-1.14.18-2.03.18-1.24.5-3.01.95-5.32.79-3.97,1.94-9.41,3.47-16.32,2.47-11.25,4.65-20.84,6.54-28.78.16-.74.29-1.42.39-2.05.11-.63.18-1.17.22-1.62.04-.45.05-.85.02-1.2-.03-.35-.06-.64-.1-.85-.04-.21-.09-.39-.16-.55-.07-.16-.13-.26-.2-.32-.07-.05-.12-.1-.18-.16-.6-.39-1.72.04-3.35,1.3-.74.58-1.49,1.27-2.27,2.09-.78.82-1.53,1.71-2.27,2.68-.74.97-1.43,2-2.09,3.08-.66,1.08-1.24,2.16-1.73,3.25-.5,1.09-.91,2.17-1.24,3.25-.33,1.08-.51,2.08-.55,3.02-.04.93.06,1.79.3,2.58.76,2.26,2.94,3.42,6.54,3.47.13,0,.26.03.38.1.12.07.21.16.28.28.07.12.1.26.1.41,0,.21-.08.39-.24.53-.16.14-.33.22-.51.22h-.04c-.81-.03-1.59-.1-2.33-.24-.74-.13-1.49-.36-2.27-.67-.78-.32-1.46-.78-2.05-1.4-.59-.62-1.03-1.36-1.32-2.23-.97-2.94-.16-6.85,2.44-11.71,1.08-1.97,2.33-3.85,3.75-5.64,1.42-1.79,2.82-3.22,4.22-4.3,2.18-1.68,3.88-2.13,5.09-1.34,1.52.97,1.73,3.76.63,8.36-1.13,4.81-2.72,11.75-4.77,20.83-2.05,9.08-3.65,16.48-4.81,22.21,3.13-10.04,6.47-19.13,10.01-27.28.81-1.87,1.6-3.59,2.37-5.16.76-1.58,1.44-2.92,2.03-4.02.59-1.1,1.17-2.08,1.74-2.94.56-.85,1.04-1.54,1.44-2.07.39-.53.79-.97,1.18-1.34.39-.37.71-.63.95-.79.24-.16.49-.26.75-.31.26-.05.45-.07.55-.06.11.01.24.03.39.06.29.05.55.18.79.37.24.2.47.53.69.99.22.46.4,1.04.53,1.75.13.71.22,1.66.26,2.84.04,1.18.03,2.54-.04,4.08-.07,1.54-.21,3.4-.43,5.6-.22,2.19-.52,4.63-.89,7.31,1.26-3.86,2.56-7.48,3.88-10.86,1.33-3.38,2.63-6.39,3.9-9.05s2.5-4.93,3.67-6.84c1.17-1.91,2.27-3.34,3.31-4.3,1.04-.96,1.95-1.4,2.74-1.32,1.23.13,1.93,1.34,2.09,3.63Z"/>
        <path class="cls-2" d="M68.88,76.78c.2-.07.39-.05.57.04.18.09.31.24.37.43.07.2.06.39-.02.57-2.81,5.81-5.32,8.71-7.53,8.71-.13,0-.28-.01-.43-.04-1.76-.34-2.85-2.71-3.27-7.1-1.29,1.74-2.43,3.15-3.43,4.26-.89.95-1.66,1.28-2.29.99-.63-.24-.93-.92-.91-2.05,0-.95.21-2.08.63-3.39.42-1.31,1.04-2.59,1.85-3.82.81-1.24,1.7-2.01,2.64-2.33,1.39-.5,2.68-.04,3.86,1.38.13.16.19.34.18.55-.01.21-.1.38-.26.51-.16.13-.34.19-.55.18-.21-.01-.38-.1-.51-.26-.92-1.1-1.85-1.31-2.8-.63-1.08.76-1.98,2.13-2.7,4.12-.72,1.98-1,3.4-.85,4.24.16-.13.34-.3.55-.51,1.05-1.13,2.34-2.75,3.86-4.85.34-.47.58-.8.71-.99.21-.26.49-.35.83-.26.34.09.53.32.55.69.05,1.29.16,2.43.32,3.43.16,1,.32,1.75.47,2.27.16.51.34.94.55,1.28.21.34.37.56.49.65.12.09.24.14.38.14.37.08.83-.1,1.4-.53.57-.43,1.29-1.27,2.17-2.52.88-1.25,1.78-2.83,2.7-4.75.1-.21.26-.35.45-.41Z"/>
        <path class="cls-2" d="M82.15,48.65c.55.82.28,2.74-.81,5.78-1.09,3.04-2.86,6.5-5.3,10.39-.03.03-.05.05-.08.08-1.66,6.62-3.24,13.53-4.75,20.71-1.51,7.19-2.48,12.31-2.9,15.35h.08c.21.08.36.21.45.39.09.18.1.38.02.59-.16.45-.28.78-.38,1-.09.22-.23.44-.41.65-.18.21-.38.31-.59.31-.08,0-.17-.01-.28-.04-.37-.13-.56-.49-.59-1.08-.03-.59.16-2.04.55-4.36.47-2.84,1.18-6.54,2.13-11.12,2.18-10.41,4.35-19.68,6.5-27.83.18-.68.38-1.4.59-2.15.21-.75.51-1.69.91-2.82.39-1.13.78-2.12,1.16-2.98.38-.85.81-1.62,1.28-2.29.47-.67.92-1.03,1.34-1.08.45-.08.8.08,1.06.47ZM77.34,59.61c2.1-3.97,3.29-7.08,3.55-9.34-1.16,1.73-2.34,4.85-3.55,9.34Z"/>
        <path class="cls-2" d="M95.45,76.78c.2-.07.39-.05.57.04.18.09.31.24.38.43.06.2.06.39-.02.57-2.81,5.81-5.32,8.71-7.53,8.71-.13,0-.28-.01-.43-.04-1.76-.34-2.85-2.71-3.27-7.1-1.29,1.74-2.43,3.15-3.43,4.26-.89.95-1.66,1.28-2.29.99-.63-.24-.93-.92-.91-2.05,0-.95.21-2.08.63-3.39.42-1.31,1.04-2.59,1.85-3.82.81-1.24,1.7-2.01,2.64-2.33,1.39-.5,2.68-.04,3.86,1.38.13.16.19.34.18.55-.01.21-.1.38-.26.51-.16.13-.34.19-.55.18-.21-.01-.38-.1-.51-.26-.92-1.1-1.85-1.31-2.8-.63-1.08.76-1.98,2.13-2.7,4.12-.72,1.98-1,3.4-.85,4.24.16-.13.34-.3.55-.51,1.05-1.13,2.34-2.75,3.86-4.85.34-.47.58-.8.71-.99.21-.26.49-.35.83-.26.34.09.53.32.55.69.05,1.29.16,2.43.31,3.43.16,1,.32,1.75.47,2.27s.34.94.55,1.28c.21.34.38.56.49.65.12.09.24.14.38.14.37.08.83-.1,1.4-.53.57-.43,1.29-1.27,2.17-2.52.88-1.25,1.78-2.83,2.7-4.75.11-.21.26-.35.45-.41Z"/>
        <path class="cls-2" d="M113.43,76.66c.2-.04.39,0,.57.1.18.11.3.26.36.47.05.21.01.39-.12.55-1.05,1.71-2.3,3.28-3.75,4.71-1.45,1.43-2.93,2.63-4.45,3.59-1.52.96-2.9,1.73-4.12,2.33-1.22.59-2.45,1.1-3.69,1.52-.37.13-.66.03-.87-.32-.42,1.05-.79,2.09-1.1,3.11-.11.34-.36.51-.75.51h-.12c-.18-.03-.34-.11-.45-.26-.12-.14-.18-.31-.18-.49.03-.6.66-3.73,1.91-9.38,1.25-5.65,2.5-11.17,3.76-16.56,0-.08.01-.16.04-.24.45-1.89.81-3.42,1.1-4.57.89-3.63,1.92-6.72,3.09-9.28,1.17-2.56,2.17-3.92,3.02-4.08.45-.08.79.05,1.03.39.58.76.25,2.79-.99,6.07-1.24,3.29-3.17,7.29-5.8,12.02-1.42,5.97-2.76,11.87-4.02,17.7.74-1.52,1.44-2.76,2.13-3.71,2.05-2.86,3.68-4.11,4.89-3.75.79.24,1.2.93,1.22,2.09,0,.55-.09,1.18-.26,1.87s-.45,1.47-.85,2.31c-.39.84-.87,1.64-1.42,2.41,4.1-2.42,7.21-5.35,9.34-8.79.1-.18.26-.3.45-.33ZM97.8,88.46c.95-.34,1.83-.85,2.66-1.52.83-.67,1.51-1.4,2.05-2.19.54-.79.97-1.56,1.3-2.31.33-.75.56-1.45.69-2.11.18-.92.18-1.51,0-1.77-.11,0-.24.05-.41.14-.17.09-.52.39-1.04.91-.53.51-1.1,1.22-1.73,2.11-1.13,1.58-2.3,3.82-3.51,6.74ZM107.42,50.54c-1.42,2.1-2.76,5.53-4.02,10.29,2.29-4.62,3.63-8.05,4.02-10.29Z"/>
        <path class="cls-2" d="M131.32,76.78c.2-.07.39-.05.57.04.18.09.31.24.38.43.07.2.06.39-.02.57-2.81,5.81-5.32,8.71-7.53,8.71-.13,0-.28-.01-.43-.04-1.76-.34-2.85-2.71-3.27-7.1-1.29,1.74-2.43,3.15-3.43,4.26-.89.95-1.66,1.28-2.29.99-.63-.24-.93-.92-.91-2.05,0-.95.21-2.08.63-3.39.42-1.31,1.04-2.59,1.85-3.82.81-1.24,1.69-2.01,2.64-2.33,1.39-.5,2.68-.04,3.86,1.38.13.16.19.34.18.55-.01.21-.1.38-.26.51-.16.13-.34.19-.55.18-.21-.01-.38-.1-.51-.26-.92-1.1-1.85-1.31-2.8-.63-1.08.76-1.98,2.13-2.7,4.12-.72,1.98-1.01,3.4-.85,4.24.16-.13.34-.3.55-.51,1.05-1.13,2.34-2.75,3.86-4.85.34-.47.58-.8.71-.99.21-.26.49-.35.83-.26.34.09.53.32.55.69.05,1.29.16,2.43.32,3.43.16,1,.32,1.75.47,2.27.16.51.34.94.55,1.28.21.34.38.56.49.65.12.09.24.14.37.14.37.08.83-.1,1.4-.53.56-.43,1.29-1.27,2.17-2.52.88-1.25,1.78-2.83,2.7-4.75.1-.21.26-.35.45-.41Z"/>
        <path class="cls-2" d="M149.73,76.62c.2-.07.39-.05.57.04.18.09.31.24.39.43.08.2.06.39-.04.57-.71,1.52-1.51,3.09-2.41,4.69-.89,1.6-1.87,3.23-2.94,4.87-1.06,1.64-2.12,2.98-3.17,4.02-1.05,1.04-1.95,1.56-2.68,1.56-.18,0-.35-.04-.51-.12-1.08-.42-1.42-2.05-1.03-4.89.37-2.65,1.34-6.41,2.92-11.27-.03,0-.05,0-.06.02-.01.01-.03.02-.06.02-.58.39-1.06.7-1.44.91-.38.21-.89.45-1.54.71-.64.26-1.25.38-1.83.35-.58-.03-1.12-.21-1.62-.55-1-.71-1.51-1.7-1.54-2.96-.03-1.26.45-2.64,1.42-4.14.6-.95,1.33-1.77,2.19-2.48.85-.71,1.58-.87,2.19-.47.37.21.58.55.65,1.02.07.47-.16,1.39-.69,2.74-.53,1.35-1.41,3.12-2.64,5.3.81.11,2.15-.46,4.02-1.7.34-.24.6-.4.77-.49.17-.09.37-.19.59-.3.22-.1.41-.14.57-.12.16.03.32.09.47.2.39.32.46.87.2,1.66-2.63,8.15-3.67,13.09-3.11,14.82.05.1.09.18.12.24.21.03.53-.14.96-.51.43-.37.97-.95,1.62-1.73.64-.79,1.34-1.73,2.09-2.84s1.58-2.46,2.48-4.06c.91-1.6,1.78-3.31,2.62-5.12.11-.21.26-.35.45-.41ZM134.42,73.96c-.24.92-.18,1.66.16,2.21,1.92-3.34,2.94-5.6,3.07-6.78-.32.18-.68.49-1.08.91-.41.42-.83.97-1.26,1.64-.43.67-.73,1.35-.89,2.03Z"/>
      </g>
      <g>
        <path class="cls-1" d="M3.93,34.57V4.8Q3.93,3.4,2.18.17h17.62c9.6,0,14.91,4.74,14.91,10.76,0,4.96-3.44,8.7-9.6,10.04l10.38,12.6q2.59,3.18,5.19,5.63h-11.22l-13.88-17.68h-2.84v12.83q0,1.45,2.41,4.85H2.18q1.75-3.29,1.75-4.63ZM17.63,17.62c5.43,0,7.97-2.62,7.97-6.52s-2.53-6.52-7.97-6.52h-4.89v13.05h4.89Z"/>
        <path class="cls-1" d="M44.24,24.31V4.8q0-1.39-1.75-4.63h12.61q-2.05,3.29-2.05,4.68v19.96c0,5.91,3.86,9.76,10.26,9.76s9.84-3.9,9.84-9.76V4.85q0-1.39-2.17-4.68h9.9q-1.69,3.29-1.69,4.68v19.3c0,10.26-6.34,15.89-17.32,15.89s-17.62-5.41-17.62-15.73Z"/>
        <path class="cls-1" d="M89.56,34.57V1.9l-1.69-1.73h10.44l21.42,24.93V4.85q0-1.39-2.23-4.68h9.78q-1.69,3.29-1.69,4.63v34.8h-4.22l-25.95-29.33v24.26q0,1.39,2.41,4.68h-10.02q1.75-3.29,1.75-4.63Z"/>
        <path class="cls-1" d="M131.87.17h13.4q-2.23,3.35-1.45,5.69l7.3,21.58L161.86.06h5.01l10.68,27.32,7.3-21.53q.85-2.4-1.27-5.69h10.14q-1.87,3.23-3.14,6.64l-12.19,32.79h-4.28l-11.29-27.88-11.47,27.83-4.34.06-12.37-33.46q-1.09-3.01-2.78-5.97Z"/>
        <path class="cls-1" d="M194.27,32.68L209,0h5.97l14.85,33.01q1.45,3.18,3.2,6.19h-13.58q1.93-3.46,1.03-5.69l-1.93-4.63h-16.47l-2.05,4.85q-.91,2.23,1.09,5.46h-10.2q1.87-3.29,3.38-6.52ZM216.66,24.2l-6.28-15.22-6.4,15.22h12.67Z"/>
        <path class="cls-1" d="M237.42,39.2q1.75-3.29,1.75-4.63V4.8q0-1.39-1.75-4.63h12.31q-1.75,3.29-1.75,4.63v29.44h7.78c2.66,0,4.28,0,10.08-4.29l-.97,9.26h-27.46Z"/>
      </g>
    </g>
  </g>
</svg>